# xmcd
#
# Track frame offsets:
#	150
#	17626
#	31398
#	40489
#	57794
#	66441
#	84889
#	93257
#	107605
#	114345
#	131182
#	140931
#	157686
#	164093
#	180753
#	191603
#	207135
#	223806
#	236439
#	243475
#
# Disc length: 3494 seconds
#
# Revision: 0
# Processed by: cddbd v1.5.1PL2 Copyright (c) Steve Scherf et al.
# Submitted via: dBpowerAMP V4.0
#
DISCID=130da414
DTITLE=Aldo Patrick - Um toque de amor...
DYEAR=2003
DGENRE=Vocal
TTITLE0=Falar de Amor
TTITLE1=Georgia
TTITLE2=Saudade
TTITLE3=Becouse
TTITLE4=Esperança
TTITLE5=Falar de Nós
TTITLE6=Madrugada de Solidão
TTITLE7=Alô
TTITLE8=Teu Nome Oculto
TTITLE9=Somente Para Sentir Saudade
TTITLE10=Depende...
TTITLE11=Will be
TTITLE12=Madrugada de Solidão
TTITLE13=Only
TTITLE14=Porque eu te amo
TTITLE15=Não Mais...
TTITLE16=Você é Muito Especial
TTITLE17=Never
TTITLE18=Sentir Saudade
TTITLE19=Dê-me um sorriso
EXTD=Um toque de amor...\nAldo Patrick
EXTT0=
EXTT1=
EXTT2=
EXTT3=
EXTT4=
EXTT5=
EXTT6=
EXTT7=
EXTT8=
EXTT9=
EXTT10=
EXTT11=
EXTT12=
EXTT13=
EXTT14=
EXTT15=
EXTT16=
EXTT17=
EXTT18=
EXTT19=
PLAYORDER=
